<?xml version="1.0" standalone="no"?>
<!DOCTYPE svg PUBLIC "-//W3C//DTD SVG 20010904//EN"
 "http://www.w3.org/TR/2001/REC-SVG-20010904/DTD/svg10.dtd">
<svg version="1.0" xmlns="http://www.w3.org/2000/svg"
 width="700.000000pt" height="700.000000pt" viewBox="0 0 700.000000 700.000000"
 preserveAspectRatio="xMidYMid meet">
<metadata>
Created by potrace 1.14, written by Peter Selinger 2001-2017
</metadata>
<g transform="translate(0.000000,700.000000) scale(0.100000,-0.100000)"
fill="#000000" stroke="none">
<path d="M2999 6996 c-2 -2 -26 -7 -52 -10 -77 -11 -233 -44 -352 -76 -379
-101 -761 -277 -1080 -498 -715 -495 -1221 -1234 -1419 -2072 -24 -100 -29
-125 -41 -195 -3 -16 -8 -41 -10 -55 -8 -40 -25 -179 -33 -265 -7 -85 -8 -452
-1 -620 l4 -100 695 -5 695 -5 40 -23 c61 -36 84 -73 135 -216 201 -559 582
-994 1100 -1252 191 -96 343 -145 545 -178 209 -34 551 -40 690 -12 11 2 43 7
70 10 122 17 337 75 486 131 126 49 317 146 424 216 89 59 99 63 164 60 42 -1
125 -39 169 -76 46 -38 62 -76 69 -154 4 -54 2 -76 -14 -113 -31 -68 -47 -83
-185 -169 -303 -188 -611 -310 -963 -380 -27 -5 -72 -12 -100 -15 -27 -4 -53
-8 -56 -10 -30 -17 -462 -25 -619 -11 -611 54 -1177 317 -1605 744 -258 258
-468 575 -591 890 l-28 73 -507 0 -508 0 9 -27 c114 -363 199 -563 362 -844
32 -56 177 -270 222 -329 344 -445 772 -796 1258 -1029 213 -103 418 -179 618
-232 75 -20 297 -68 340 -74 25 -3 72 -10 105 -15 164 -25 602 -35 786 -18
392 37 812 151 1169 319 103 48 93 43 270 142 19 10 54 32 78 48 24 16 45 29
47 29 10 0 251 172 312 223 204 170 339 305 523 523 52 61 189 255 252 356
224 356 406 828 473 1228 43 257 50 352 50 677 0 205 -4 276 -13 285 -10 10
-157 13 -675 13 l-662 1 -49 24 c-26 13 -67 43 -91 67 -36 36 -49 62 -84 165
-79 232 -217 483 -369 673 -132 164 -345 353 -537 476 -177 114 -433 222 -600
255 -11 2 -31 6 -45 9 -139 32 -316 49 -495 48 -187 0 -299 -12 -520 -57 -209
-42 -547 -183 -727 -303 -125 -84 -174 -93 -264 -53 -119 52 -171 132 -162
249 6 80 44 142 116 189 80 51 378 201 497 250 267 110 584 192 845 219 96 10
434 10 525 0 509 -55 977 -255 1385 -591 142 -117 304 -286 422 -441 124 -163
267 -413 339 -592 l33 -83 513 0 c282 0 513 3 513 6 0 9 -29 110 -61 210 -189
603 -589 1198 -1074 1599 -33 28 -62 53 -65 56 -3 3 -41 32 -85 65 -363 273
-778 474 -1219 589 -72 19 -146 37 -165 40 -19 3 -37 7 -40 9 -3 2 -27 7 -53
10 -26 4 -69 11 -95 16 -46 8 -1025 15 -1034 6z"/>
</g>
</svg>
